<svg xmlns="http://www.w3.org/2000/svg" viewBox="0 0 304.74 304.04"><defs><style>.cls-1{fill:#0c923f;}.cls-2{fill:#0e843c;}.cls-3{fill:#68b132;}.cls-4{fill:#299444;}.cls-5{fill:#fff;}</style></defs><title>logosimple</title><g id="Capa_2" data-name="Capa 2"><g id="Capa_1-2" data-name="Capa 1"><path class="cls-1" d="M62.28,220.48c-14.46,1.83-27.67,3.31-40.5,9.59C-3.11,185.73-7.07,140.22,12,93.39A151.43,151.43,0,0,1,140.16.08a2.58,2.58,0,0,1,1,3.2c-7.87,27.13-19.32,52.56-36,75.47-.56.76-1.23,1.45-2.38,2.8-4.06-8.35-5.48-17.12-9-25.08-20,7.87-46.38,39.08-52.64,74C35.26,163,42.33,192.84,62.28,220.48Z"/><path class="cls-2" d="M289.24,219.91c-21.26-22.84-37.76-46.54-49.56-74.21,9,.56,16.67,3.85,24.75,4.18,3.63-19.19-9.11-59.21-37.29-83.22-25.08-21.36-54-30.38-87.53-27.58,5.23-12.95,10-25.23,10.45-38.58,35.2-3.85,91.8,14.23,125.31,61.63C310,111.16,313.15,163.5,289.24,219.91Z"/><path class="cls-3" d="M27.67,237.41c30.11-8.43,68.42-12.14,86.48-8.15-2,4.35-5.63,7.21-8.38,10.66s-5.51,6.69-8.71,10.57c29.79,16.15,60.25,18.94,91.88,8.37s53.34-32,67.88-62.17c8,11.57,16.37,21.89,27.15,29.81-16.7,35.85-63.66,72.87-118.94,77.08C98.79,308.63,47.51,271.12,27.67,237.41Z"/><path class="cls-4" d="M69.68,153.67c-.89-41.29,33-82.26,82.76-82.24,45.06,0,82.74,34.88,82.65,82.37-.08,47.28-37.19,82.32-82.83,82.27C102.39,236,68.79,195.18,69.68,153.67Zm159-.26c-.2-43.17-36.71-75.75-76.74-75.61-38,.14-76.18,30.77-76,76.3.15,43.6,36.44,75.86,76.72,75.54C194.74,229.3,228.77,195.38,228.68,153.41Z"/><path class="cls-3" d="M126.8,116c-.1-5.24-1.74-10.29-.38-15.75,3.1-12.46,14.28-20.37,28.45-19.4,11.63.8,22.13,11.62,22.72,23.53.15,2.9,0,5.82-.05,8.72l.14-.13c-3.9,9.36-9.92,16.47-20.2,19.08L145.63,132c-5.36-1.64-10.23-4.14-13.78-8.6-1.89-2.38-3.49-5-5.22-7.51Z"/><path class="cls-4" d="M145.63,132l11.85.08c-1.71,14.63-2.95,29.27-1.41,44.54,11.37-13.25,16.47-17.23,30.82-24.19,1,2.33,1.49,5,3.74,6.6-17,1.14-28.44,15.11-32.77,29.66-.45,1.52,0,2.8.3,4.22,1.79,10.32,5,20.09,10.75,28.94a3.09,3.09,0,0,1,.72,2.88H133.44c-.36-2.12,1.22-3.42,2.17-4.92,4.94-7.88,7.65-16.62,9.75-25.56a15.2,15.2,0,0,0-.9-9.2c-5.61-14.42-15.81-23.32-30.9-26.64.54-2.11,1.09-4.22,1.63-6.32,12.91,4.56,22.94,13.15,32.19,23.28A160.2,160.2,0,0,0,145.63,132Z"/><path class="cls-2" d="M115.19,152.06c-.54,2.1-1.09,4.21-1.63,6.32-2.46,2.93-4.79,6-8.42,7.7a17.92,17.92,0,0,1-20.09-2.7,18.46,18.46,0,0,1-4.71-19.81,18.07,18.07,0,0,1,16-11.46c2.37-.14,4.75.83,7.1-.07l-.17-.12c.15,2.28,1.82,1.55,3.1,1.58l-.19-.14C111.12,138.68,116.07,144,115.19,152.06Z"/><path class="cls-2" d="M190.63,159c-2.25-1.63-2.72-4.27-3.74-6.6-1.27-8.71,2.35-15.26,9-20.48l-.18.11c1.16-.28,2.39-.41,3.1-1.59l-.08.18c1.68-.09,3.36-.24,5-.27,8.86-.18,15.47,4.47,18,12.61a17.42,17.42,0,0,1-7.27,20.13,18.13,18.13,0,0,1-22-1.93A21.84,21.84,0,0,1,190.63,159Z"/><path class="cls-4" d="M103.48,132c-2-3.91-5.23-7.15-4.78-12.24.54-6.18,3.27-10.67,8.82-12.62s10.93-.49,15.09,3.67c1.61,1.6,1.42,4.59,4.19,5.15l-.17-.14c-.13.93-.33,1.86-.38,2.8-.59,10.66-5.89,15.48-16.47,14.93-1.19-.06-2.37-.16-3.56-.23l.19.14c-.47-1.63-1.68-1.82-3.1-1.58Z"/><path class="cls-1" d="M198.74,130.62l.08-.18c-1.18.26-2.44.35-3.1,1.59l.18-.11c-1.68,0-3.36.1-5,0-7.7-.35-13.08-5.64-13.4-13.22-.08-1.91.14-3.84.22-5.76l-.14.13c1.68-.75,1.91-2.64,3-3.86,5.16-5.62,12.69-6.52,18.77-2.13s7.39,11.92,3.31,18.48A58.92,58.92,0,0,1,198.74,130.62Z"/><path class="cls-5" d="M93.53,112a13.16,13.16,0,0,1,5,2.64,20.91,20.91,0,0,1,4,4.45,29.21,29.21,0,0,1,2.84,5.39,46,46,0,0,1,1.8,5.39c.75,2.77,1.52,5.3,2.31,7.56a33.75,33.75,0,0,0,2.94,6.34,25.21,25.21,0,0,0,4.39,5.44,36.73,36.73,0,0,0,6.72,4.87c.31.13.66.28,1,.47a5.16,5.16,0,0,0,2.36.57,4,4,0,0,0,3-1.32,3.79,3.79,0,0,1,2.74-1.23,3,3,0,0,1,.85.09c1.14.32,1.29,1,.48,1.89a8.11,8.11,0,0,1-6.06,3.41,23.13,23.13,0,0,1-7-1,28.48,28.48,0,0,1-6.2-2.84,37.38,37.38,0,0,1-5.53-4.16,71.9,71.9,0,0,1-5.06-5.11,21,21,0,0,1-4.44-7.47l-2-5.67q-1-2.75-2-5.58c-.32-.82-.77-1.91-1.37-3.27a33.89,33.89,0,0,0-2.13-4,18.81,18.81,0,0,0-2.65-3.4,4.21,4.21,0,0,0-3-1.42H86q-.24,0-.24-.09a5.35,5.35,0,0,0-.47-.43c-.19-.16-.28-.3-.28-.42a.91.91,0,0,1,.28-.67.77.77,0,0,1,.47-.28l.71-.19a3.12,3.12,0,0,1,.81-.09,4.45,4.45,0,0,0,2.17-.57,18.56,18.56,0,0,0,2.08-1.33,47.38,47.38,0,0,0,10.74-9.17,71.79,71.79,0,0,0,8.18-11.54,29.46,29.46,0,0,0,3.17-6.81,48.59,48.59,0,0,0,1.74-7.28,25.42,25.42,0,0,0,.57-7.56,17.1,17.1,0,0,0-1.89-5.91,27.15,27.15,0,0,0-3.59-5.06,12,12,0,0,0-6.25-4,31.89,31.89,0,0,0-7.47-.85,40,40,0,0,0-9.45,1.18,48.32,48.32,0,0,0-9.37,3.36,51.25,51.25,0,0,0-8.51,5.15A44.4,44.4,0,0,0,58.73,73a48.17,48.17,0,0,0-3.22,5.87,42.4,42.4,0,0,0-2.32,6.24,22.61,22.61,0,0,0-.9,6.19,21.73,21.73,0,0,0,.57,4.92,6,6,0,0,0,1.28,2.74,2.89,2.89,0,0,0,3.73,1.14,7.45,7.45,0,0,0,1.71-1c.5-.38,1-.78,1.51-1.23a6.75,6.75,0,0,1,.52-.85,4.28,4.28,0,0,1,.8-.85,2.63,2.63,0,0,1,1-.85h.28c.76,0,1,.38.85,1.14-.12.37-.23.74-.33,1.08a2.74,2.74,0,0,1-.52,1,6.81,6.81,0,0,1-2.17,3A7.85,7.85,0,0,1,58.16,103H55.6a7.81,7.81,0,0,1-5.29-2.08,8.82,8.82,0,0,1-2.37-5.11,26.82,26.82,0,0,1,.86-11.25,47.34,47.34,0,0,1,7.28-15.09A51.93,51.93,0,0,1,67.66,57.88a53.19,53.19,0,0,1,31.16-10,46.16,46.16,0,0,1,8,.67,26.93,26.93,0,0,1,7,2.22,21.76,21.76,0,0,1,6,4.21,22.57,22.57,0,0,1,4.59,6.71A19,19,0,0,1,125.49,72a26.58,26.58,0,0,1-2.17,8,62.57,62.57,0,0,1-3.88,7.28,42.57,42.57,0,0,1-7.09,9,104.4,104.4,0,0,1-8.7,7.52q-2.46,1.8-5,3.55t-5.1,3.55a1.54,1.54,0,0,1-.38.28,1.54,1.54,0,0,0-.38.28C93.09,111.82,93.34,112,93.53,112ZM78.21,159.74a1.21,1.21,0,0,1-1,.56c-.32.06-.6.11-.85.14a4.93,4.93,0,0,1-.76.05,5.51,5.51,0,0,1-2.65-.66,3.69,3.69,0,0,1-1.84-1.33,4.7,4.7,0,0,1-.9-2.26,17.21,17.21,0,0,1-.57-4.54v-3h-.19q.28-3.21.48-6.53t.56-6.62q.76-6,1.75-11.82t2-11.72q.84-4.55,2-9.08l2.27-9.08q.95-3.31,1.66-6.48t1.37-6.29c.19-1.45.38-2.92.56-4.4a34.46,34.46,0,0,0,.29-4.4c-.13-.81,0-1.37.33-1.65a2.63,2.63,0,0,1,1.65-.43h1.19a6.29,6.29,0,0,1,1.46.19,3,3,0,0,1,1,.57,7.22,7.22,0,0,1,.8.85c.31.7.58,1.34.8,1.94a11.23,11.23,0,0,1,.52,1.94A18.7,18.7,0,0,1,90.36,80c-.09,1.45-.24,2.87-.43,4.26a114.94,114.94,0,0,1-2.31,12.15q-1.47,5.91-3.08,12-1.61,5.67-2.93,11.3t-2.55,11.59c-.44,2.65-.87,5.21-1.28,7.71s-.83,5-1.28,7.61a34.7,34.7,0,0,0-.33,3.83c0,1.29-.11,2.57-.23,3.83a4.43,4.43,0,0,0,.09.9,4.72,4.72,0,0,1,.1,1,8.23,8.23,0,0,0,.42,1.32,1.48,1.48,0,0,0,1.18.76.42.42,0,0,1,.48.47.59.59,0,0,1,.38.52A.6.6,0,0,1,78.21,159.74Z"/><path class="cls-5" d="M176.44,160.48a13.85,13.85,0,0,0,4.3,3.78,25.3,25.3,0,0,0,5.34,2.27,14.64,14.64,0,0,0,1.85.48,13.35,13.35,0,0,1,1.84.47.63.63,0,0,1,.28.05.46.46,0,0,0,.19,0c.38,0,.7-.28.95-.85.5-1,1-2,1.56-3.07s1.05-2,1.56-3,1-1.66,1.61-2.51,1.13-1.65,1.7-2.41a56.49,56.49,0,0,1,3.93-5.1,55.22,55.22,0,0,1,5.29-5.44,41.59,41.59,0,0,1,6-4.54,16.44,16.44,0,0,1,6.05-2.41,6.84,6.84,0,0,1,1.7-.34,8.22,8.22,0,0,0,1.61-.23,5.27,5.27,0,0,1,1-.1h1a11.35,11.35,0,0,1,2,.19,6.31,6.31,0,0,1,1.84.66c2.46,1.52,3.56,3.47,3.31,5.87a8.83,8.83,0,0,1-1.7,5.48A33.4,33.4,0,0,1,224,156.7a49.77,49.77,0,0,1-16.17,10,43.3,43.3,0,0,1-8.75,2.37,6,6,0,0,0-.95.38,1.56,1.56,0,0,0-.66.75,31,31,0,0,1-1.09,3.08,27.7,27.7,0,0,0-1.08,3.07c-.57,1.45-1.09,2.92-1.56,4.4s-.94,2.95-1.38,4.39c-.37,1.64-.74,3.28-1.08,4.92s-.68,3.28-1,4.92c-.25,1.45-.45,2.88-.61,4.3a38.51,38.51,0,0,0-.24,4.31,56.75,56.75,0,0,0,0,8,73,73,0,0,0,1.33,9.26,44.56,44.56,0,0,0,3.16,9.84,24.43,24.43,0,0,0,5.54,7.8,11.65,11.65,0,0,0,8.22,3.17h.67a12.84,12.84,0,0,0,5.29-2.84,30.34,30.34,0,0,0,4.83-5.29,62.3,62.3,0,0,0,4.3-6.91q2-3.78,3.83-7.66t3.4-7.47c1.08-2.4,2-4.54,2.94-6.43.37-.88.72-1.78,1-2.7s.66-1.81,1-2.69a18.26,18.26,0,0,1,.75-1.89,1.24,1.24,0,0,1,1.23-.57,1.14,1.14,0,0,1,.48-.1c.31,0,.47.26.47.76-.32,1.45-.65,2.89-1,4.3a38.75,38.75,0,0,1-1.38,4.4q-3.21,8.61-6.38,15.65a100.16,100.16,0,0,1-6.38,12.16,40.46,40.46,0,0,1-6.43,8.08,12.23,12.23,0,0,1-6.53,3.45c-.76.13-1.48.24-2.18.34a16,16,0,0,1-2.08.14,17,17,0,0,1-8.27-2,23,23,0,0,1-6.53-5.29,32,32,0,0,1-4.68-7.33,37.63,37.63,0,0,1-2.74-8.13,57.17,57.17,0,0,1-2.18-19.2,78.07,78.07,0,0,1,.9-9.22,82.63,82.63,0,0,1,1.85-8.56q1.13-4.17,2.6-8.32c1-2.78,2-5.62,3.07-8.52.13-.31.14-.48,0-.52a2.08,2.08,0,0,1-.43-.23,11.83,11.83,0,0,1-3.07-.48,30.74,30.74,0,0,1-3.55-1.18,28,28,0,0,1-3.4-1.61,18.64,18.64,0,0,1-2.55-1.65,12.36,12.36,0,0,1-1.38-1.61,7.72,7.72,0,0,1-1-1.89c-.12-.5.1-.85.66-1A2.1,2.1,0,0,1,176.44,160.48Zm23.17,6.81c1.26-.31,2.52-.66,3.78-1a38.46,38.46,0,0,0,3.69-1.32,37.41,37.41,0,0,0,6.43-3,39.83,39.83,0,0,0,6.34-4.59,28.49,28.49,0,0,0,5-5.81,15.53,15.53,0,0,0,2.46-6.72,5,5,0,0,0-1.23-3.21,2.67,2.67,0,0,0-2.37-1.33,5.13,5.13,0,0,0-1.75.38,13.73,13.73,0,0,0-2,.95c-.66.37-1.31.75-1.94,1.13a13.44,13.44,0,0,0-1.52,1q-2.17,1.8-4.11,3.74a37.36,37.36,0,0,0-3.55,4.11,50.42,50.42,0,0,0-4.11,5.53q-1.84,2.9-3.55,5.91a18,18,0,0,0-1.08,1.94c-.29.6-.59,1.25-.9,1.94-.13.25-.13.38,0,.38Z"/></g></g></svg>