<svg xmlns="http://www.w3.org/2000/svg" viewBox="0 0 782.47 304.04"><defs><style>.cls-1{fill:#0c923f;}.cls-2{fill:#0e843c;}.cls-3{fill:#68b132;}.cls-4{fill:#299444;}.cls-5{fill:#fff;}</style></defs><title>logo</title><g id="Capa_2" data-name="Capa 2"><g id="Capa_1-2" data-name="Capa 1"><path class="cls-1" d="M62.28,220.48c-14.46,1.83-27.67,3.31-40.5,9.59C-3.11,185.73-7.07,140.22,12,93.39A151.43,151.43,0,0,1,140.16.08a2.58,2.58,0,0,1,1,3.2c-7.87,27.13-19.32,52.56-36,75.47-.56.76-1.23,1.45-2.38,2.8-4.06-8.35-5.48-17.12-9-25.08-20,7.87-46.38,39.08-52.64,74C35.26,163,42.33,192.84,62.28,220.48Z"/><path class="cls-2" d="M289.24,219.91c-21.26-22.84-37.76-46.54-49.56-74.21,9,.56,16.67,3.85,24.75,4.18,3.63-19.19-9.11-59.21-37.29-83.22-25.08-21.36-54-30.38-87.53-27.58,5.23-12.95,10-25.23,10.45-38.58,35.2-3.85,91.8,14.23,125.31,61.63C310,111.16,313.15,163.5,289.24,219.91Z"/><path class="cls-3" d="M27.67,237.41c30.11-8.43,68.42-12.14,86.48-8.15-2,4.35-5.63,7.21-8.38,10.66s-5.51,6.69-8.71,10.57c29.79,16.15,60.25,18.94,91.88,8.37s53.34-32,67.88-62.17c8,11.57,16.37,21.89,27.15,29.81-16.7,35.85-63.66,72.87-118.94,77.08C98.79,308.63,47.51,271.12,27.67,237.41Z"/><path class="cls-4" d="M69.68,153.67c-.89-41.29,33-82.26,82.76-82.24,45.06,0,82.74,34.88,82.65,82.37-.08,47.28-37.19,82.32-82.83,82.27C102.39,236,68.79,195.18,69.68,153.67Zm159-.26c-.2-43.17-36.71-75.75-76.74-75.61-38,.14-76.18,30.77-76,76.3.15,43.6,36.44,75.86,76.72,75.54C194.74,229.3,228.77,195.38,228.68,153.41Z"/><path class="cls-3" d="M126.8,116c-.1-5.24-1.74-10.29-.38-15.75,3.1-12.46,14.28-20.37,28.45-19.4,11.63.8,22.13,11.62,22.72,23.53.15,2.9,0,5.82-.05,8.72l.14-.13c-3.9,9.36-9.92,16.47-20.2,19.08L145.63,132c-5.36-1.64-10.23-4.14-13.78-8.6-1.89-2.38-3.49-5-5.22-7.51Z"/><path class="cls-4" d="M145.63,132l11.85.08c-1.71,14.63-2.95,29.27-1.41,44.54,11.37-13.25,16.47-17.23,30.82-24.19,1,2.33,1.49,5,3.74,6.6-17,1.14-28.44,15.11-32.77,29.66-.45,1.52,0,2.8.3,4.22,1.79,10.32,5,20.09,10.75,28.94a3.09,3.09,0,0,1,.72,2.88H133.44c-.36-2.12,1.22-3.42,2.17-4.92,4.94-7.88,7.65-16.62,9.75-25.56a15.2,15.2,0,0,0-.9-9.2c-5.61-14.42-15.81-23.32-30.9-26.64.54-2.11,1.09-4.22,1.63-6.32,12.91,4.56,22.94,13.15,32.19,23.28A160.2,160.2,0,0,0,145.63,132Z"/><path class="cls-2" d="M115.19,152.06c-.54,2.1-1.09,4.21-1.63,6.32-2.46,2.93-4.79,6-8.42,7.7a17.92,17.92,0,0,1-20.09-2.7,18.46,18.46,0,0,1-4.71-19.81,18.07,18.07,0,0,1,16-11.46c2.37-.14,4.75.83,7.1-.07l-.17-.12c.15,2.28,1.82,1.55,3.1,1.58l-.19-.14C111.12,138.68,116.07,144,115.19,152.06Z"/><path class="cls-2" d="M190.63,159c-2.25-1.63-2.72-4.27-3.74-6.6-1.27-8.71,2.35-15.26,9-20.48l-.18.11c1.16-.28,2.39-.41,3.1-1.59l-.08.18c1.68-.09,3.36-.24,5-.27,8.86-.18,15.47,4.47,18,12.61a17.42,17.42,0,0,1-7.27,20.13,18.13,18.13,0,0,1-22-1.93A21.84,21.84,0,0,1,190.63,159Z"/><path class="cls-4" d="M103.48,132c-2-3.91-5.23-7.15-4.78-12.24.54-6.18,3.27-10.67,8.82-12.62s10.93-.49,15.09,3.67c1.61,1.6,1.42,4.59,4.19,5.15l-.17-.14c-.13.93-.33,1.86-.38,2.8-.59,10.66-5.89,15.48-16.47,14.93-1.19-.06-2.37-.16-3.56-.23l.19.14c-.47-1.63-1.68-1.82-3.1-1.58Z"/><path class="cls-1" d="M198.74,130.62l.08-.18c-1.18.26-2.44.35-3.1,1.59l.18-.11c-1.68,0-3.36.1-5,0-7.7-.35-13.08-5.64-13.4-13.22-.08-1.91.14-3.84.22-5.76l-.14.13c1.68-.75,1.91-2.64,3-3.86,5.16-5.62,12.69-6.52,18.77-2.13s7.39,11.92,3.31,18.48A58.92,58.92,0,0,1,198.74,130.62Z"/><path class="cls-5" d="M93.53,112a13.16,13.16,0,0,1,5,2.64,20.91,20.91,0,0,1,4,4.45,29.21,29.21,0,0,1,2.84,5.39,46,46,0,0,1,1.8,5.39c.75,2.77,1.52,5.3,2.31,7.56a33.75,33.75,0,0,0,2.94,6.34,25.21,25.21,0,0,0,4.39,5.44,36.73,36.73,0,0,0,6.72,4.87c.31.13.66.28,1,.47a5.16,5.16,0,0,0,2.36.57,4,4,0,0,0,3-1.32,3.79,3.79,0,0,1,2.74-1.23,3,3,0,0,1,.85.09c1.14.32,1.29,1,.48,1.89a8.11,8.11,0,0,1-6.06,3.41,23.13,23.13,0,0,1-7-1,28.48,28.48,0,0,1-6.2-2.84,37.38,37.38,0,0,1-5.53-4.16,71.9,71.9,0,0,1-5.06-5.11,21,21,0,0,1-4.44-7.47l-2-5.67q-1-2.75-2-5.58c-.32-.82-.77-1.91-1.37-3.27a33.89,33.89,0,0,0-2.13-4,18.81,18.81,0,0,0-2.65-3.4,4.21,4.21,0,0,0-3-1.42H86q-.24,0-.24-.09a5.35,5.35,0,0,0-.47-.43c-.19-.16-.28-.3-.28-.42a.91.91,0,0,1,.28-.67.77.77,0,0,1,.47-.28l.71-.19a3.12,3.12,0,0,1,.81-.09,4.45,4.45,0,0,0,2.17-.57,18.56,18.56,0,0,0,2.08-1.33,47.38,47.38,0,0,0,10.74-9.17,71.79,71.79,0,0,0,8.18-11.54,29.46,29.46,0,0,0,3.17-6.81,48.59,48.59,0,0,0,1.74-7.28,25.42,25.42,0,0,0,.57-7.56,17.1,17.1,0,0,0-1.89-5.91,27.15,27.15,0,0,0-3.59-5.06,12,12,0,0,0-6.25-4,31.89,31.89,0,0,0-7.47-.85,40,40,0,0,0-9.45,1.18,48.32,48.32,0,0,0-9.37,3.36,51.25,51.25,0,0,0-8.51,5.15A44.4,44.4,0,0,0,58.73,73a48.17,48.17,0,0,0-3.22,5.87,42.4,42.4,0,0,0-2.32,6.24,22.61,22.61,0,0,0-.9,6.19,21.73,21.73,0,0,0,.57,4.92,6,6,0,0,0,1.28,2.74,2.89,2.89,0,0,0,3.73,1.14,7.45,7.45,0,0,0,1.71-1c.5-.38,1-.78,1.51-1.23a6.75,6.75,0,0,1,.52-.85,4.28,4.28,0,0,1,.8-.85,2.63,2.63,0,0,1,1-.85h.28c.76,0,1,.38.85,1.14-.12.37-.23.74-.33,1.08a2.74,2.74,0,0,1-.52,1,6.81,6.81,0,0,1-2.17,3A7.85,7.85,0,0,1,58.16,103H55.6a7.81,7.81,0,0,1-5.29-2.08,8.82,8.82,0,0,1-2.37-5.11,26.82,26.82,0,0,1,.86-11.25,47.34,47.34,0,0,1,7.28-15.09A51.93,51.93,0,0,1,67.66,57.88a53.19,53.19,0,0,1,31.16-10,46.16,46.16,0,0,1,8,.67,26.93,26.93,0,0,1,7,2.22,21.76,21.76,0,0,1,6,4.21,22.57,22.57,0,0,1,4.59,6.71A19,19,0,0,1,125.49,72a26.58,26.58,0,0,1-2.17,8,62.57,62.57,0,0,1-3.88,7.28,42.57,42.57,0,0,1-7.09,9,104.4,104.4,0,0,1-8.7,7.52q-2.46,1.8-5,3.55t-5.1,3.55a1.54,1.54,0,0,1-.38.28,1.54,1.54,0,0,0-.38.28C93.09,111.82,93.34,112,93.53,112ZM78.21,159.74a1.21,1.21,0,0,1-1,.56c-.32.06-.6.11-.85.14a4.93,4.93,0,0,1-.76.05,5.51,5.51,0,0,1-2.65-.66,3.69,3.69,0,0,1-1.84-1.33,4.7,4.7,0,0,1-.9-2.26,17.21,17.21,0,0,1-.57-4.54v-3h-.19q.28-3.21.48-6.53t.56-6.62q.76-6,1.75-11.82t2-11.72q.84-4.55,2-9.08l2.27-9.08q.95-3.31,1.66-6.48t1.37-6.29c.19-1.45.38-2.92.56-4.4a34.46,34.46,0,0,0,.29-4.4c-.13-.81,0-1.37.33-1.65a2.63,2.63,0,0,1,1.65-.43h1.19a6.29,6.29,0,0,1,1.46.19,3,3,0,0,1,1,.57,7.22,7.22,0,0,1,.8.85c.31.7.58,1.34.8,1.94a11.23,11.23,0,0,1,.52,1.94A18.7,18.7,0,0,1,90.36,80c-.09,1.45-.24,2.87-.43,4.26a114.94,114.94,0,0,1-2.31,12.15q-1.47,5.91-3.08,12-1.61,5.67-2.93,11.3t-2.55,11.59c-.44,2.65-.87,5.21-1.28,7.71s-.83,5-1.28,7.61a34.7,34.7,0,0,0-.33,3.83c0,1.29-.11,2.57-.23,3.83a4.43,4.43,0,0,0,.09.9,4.72,4.72,0,0,1,.1,1,8.23,8.23,0,0,0,.42,1.32,1.48,1.48,0,0,0,1.18.76.42.42,0,0,1,.48.47.59.59,0,0,1,.38.52A.6.6,0,0,1,78.21,159.74Z"/><path class="cls-5" d="M176.44,160.48a13.85,13.85,0,0,0,4.3,3.78,25.3,25.3,0,0,0,5.34,2.27,14.64,14.64,0,0,0,1.85.48,13.35,13.35,0,0,1,1.84.47.63.63,0,0,1,.28.05.46.46,0,0,0,.19,0c.38,0,.7-.28.95-.85.5-1,1-2,1.56-3.07s1.05-2,1.56-3,1-1.66,1.61-2.51,1.13-1.65,1.7-2.41a56.49,56.49,0,0,1,3.93-5.1,55.22,55.22,0,0,1,5.29-5.44,41.59,41.59,0,0,1,6-4.54,16.44,16.44,0,0,1,6.05-2.41,6.84,6.84,0,0,1,1.7-.34,8.22,8.22,0,0,0,1.61-.23,5.27,5.27,0,0,1,1-.1h1a11.35,11.35,0,0,1,2,.19,6.31,6.31,0,0,1,1.84.66c2.46,1.52,3.56,3.47,3.31,5.87a8.83,8.83,0,0,1-1.7,5.48A33.4,33.4,0,0,1,224,156.7a49.77,49.77,0,0,1-16.17,10,43.3,43.3,0,0,1-8.75,2.37,6,6,0,0,0-.95.38,1.56,1.56,0,0,0-.66.75,31,31,0,0,1-1.09,3.08,27.7,27.7,0,0,0-1.08,3.07c-.57,1.45-1.09,2.92-1.56,4.4s-.94,2.95-1.38,4.39c-.37,1.64-.74,3.28-1.08,4.92s-.68,3.28-1,4.92c-.25,1.45-.45,2.88-.61,4.3a38.51,38.51,0,0,0-.24,4.31,56.75,56.75,0,0,0,0,8,73,73,0,0,0,1.33,9.26,44.56,44.56,0,0,0,3.16,9.84,24.43,24.43,0,0,0,5.54,7.8,11.65,11.65,0,0,0,8.22,3.17h.67a12.84,12.84,0,0,0,5.29-2.84,30.34,30.34,0,0,0,4.83-5.29,62.3,62.3,0,0,0,4.3-6.91q2-3.78,3.83-7.66t3.4-7.47c1.08-2.4,2-4.54,2.94-6.43.37-.88.72-1.78,1-2.7s.66-1.81,1-2.69a18.26,18.26,0,0,1,.75-1.89,1.24,1.24,0,0,1,1.23-.57,1.14,1.14,0,0,1,.48-.1c.31,0,.47.26.47.76-.32,1.45-.65,2.89-1,4.3a38.75,38.75,0,0,1-1.38,4.4q-3.21,8.61-6.38,15.65a100.16,100.16,0,0,1-6.38,12.16,40.46,40.46,0,0,1-6.43,8.08,12.23,12.23,0,0,1-6.53,3.45c-.76.13-1.48.24-2.18.34a16,16,0,0,1-2.08.14,17,17,0,0,1-8.27-2,23,23,0,0,1-6.53-5.29,32,32,0,0,1-4.68-7.33,37.63,37.63,0,0,1-2.74-8.13,57.17,57.17,0,0,1-2.18-19.2,78.07,78.07,0,0,1,.9-9.22,82.63,82.63,0,0,1,1.85-8.56q1.13-4.17,2.6-8.32c1-2.78,2-5.62,3.07-8.52.13-.31.14-.48,0-.52a2.08,2.08,0,0,1-.43-.23,11.83,11.83,0,0,1-3.07-.48,30.74,30.74,0,0,1-3.55-1.18,28,28,0,0,1-3.4-1.61,18.64,18.64,0,0,1-2.55-1.65,12.36,12.36,0,0,1-1.38-1.61,7.72,7.72,0,0,1-1-1.89c-.12-.5.1-.85.66-1A2.1,2.1,0,0,1,176.44,160.48Zm23.17,6.81c1.26-.31,2.52-.66,3.78-1a38.46,38.46,0,0,0,3.69-1.32,37.41,37.41,0,0,0,6.43-3,39.83,39.83,0,0,0,6.34-4.59,28.49,28.49,0,0,0,5-5.81,15.53,15.53,0,0,0,2.46-6.72,5,5,0,0,0-1.23-3.21,2.67,2.67,0,0,0-2.37-1.33,5.13,5.13,0,0,0-1.75.38,13.73,13.73,0,0,0-2,.95c-.66.37-1.31.75-1.94,1.13a13.44,13.44,0,0,0-1.52,1q-2.17,1.8-4.11,3.74a37.36,37.36,0,0,0-3.55,4.11,50.42,50.42,0,0,0-4.11,5.53q-1.84,2.9-3.55,5.91a18,18,0,0,0-1.08,1.94c-.29.6-.59,1.25-.9,1.94-.13.25-.13.38,0,.38Z"/><path class="cls-5" d="M380.65,153.87a14,14,0,0,1,5.28,2.79,21.81,21.81,0,0,1,4.18,4.68,30.21,30.21,0,0,1,3,5.68,47.31,47.31,0,0,1,1.9,5.68c.79,2.92,1.61,5.58,2.44,8a36,36,0,0,0,3.09,6.67,26.48,26.48,0,0,0,4.63,5.73,38.37,38.37,0,0,0,7.07,5.13c.33.14.7.3,1.1.5a5.5,5.5,0,0,0,2.49.6,4.2,4.2,0,0,0,3.19-1.4,4,4,0,0,1,2.89-1.29,2.85,2.85,0,0,1,.89.1c1.2.33,1.36,1,.5,2a8.5,8.5,0,0,1-6.37,3.59,24.35,24.35,0,0,1-7.43-1.1,29.8,29.8,0,0,1-6.52-3,38.29,38.29,0,0,1-5.83-4.38,71.33,71.33,0,0,1-5.33-5.38,22.22,22.22,0,0,1-4.69-7.87q-1.1-3.09-2.14-6c-.69-1.93-1.41-3.88-2.14-5.88-.33-.86-.81-2-1.44-3.44a36,36,0,0,0-2.25-4.23,19.74,19.74,0,0,0-2.79-3.59,4.46,4.46,0,0,0-3.18-1.49h-.45c-.17,0-.25,0-.25-.1s-.3-.28-.5-.45a.64.64,0,0,1-.3-.45.93.93,0,0,1,.3-.69.83.83,0,0,1,.5-.3l.75-.2a2.93,2.93,0,0,1,.84-.1,4.69,4.69,0,0,0,2.29-.6,21.6,21.6,0,0,0,2.2-1.39,49.79,49.79,0,0,0,11.3-9.67,75.21,75.21,0,0,0,8.62-12.15,30.8,30.8,0,0,0,3.34-7.18,50.17,50.17,0,0,0,1.84-7.67,26.84,26.84,0,0,0,.6-8,18.24,18.24,0,0,0-2-6.23,29.52,29.52,0,0,0-3.79-5.33,12.65,12.65,0,0,0-6.57-4.18,33.11,33.11,0,0,0-7.87-.9,41.82,41.82,0,0,0-10,1.25,51.36,51.36,0,0,0-9.86,3.53,53.54,53.54,0,0,0-9,5.43,44.31,44.31,0,0,0-7.37,6.93,45.28,45.28,0,0,0-3.89,5.23A49.75,49.75,0,0,0,340.6,119a45.37,45.37,0,0,0-2.45,6.57,24.3,24.3,0,0,0-.94,6.53,22.89,22.89,0,0,0,.6,5.18,6.31,6.31,0,0,0,1.34,2.89,3,3,0,0,0,3.94,1.19,7.55,7.55,0,0,0,1.79-1c.53-.4,1.06-.83,1.59-1.3a10.51,10.51,0,0,1,.55-.9,4.21,4.21,0,0,1,.85-.89,2.58,2.58,0,0,1,1-.9h.29q1.2,0,.9,1.2c-.13.4-.25.78-.35,1.14a2.8,2.8,0,0,1-.55,1.05,7.22,7.22,0,0,1-2.29,3.14,8.28,8.28,0,0,1-3.48,1.54H340.7a8.19,8.19,0,0,1-5.58-2.19,9.24,9.24,0,0,1-2.49-5.38,28.21,28.21,0,0,1,.89-11.86,50.14,50.14,0,0,1,7.67-15.89,54.57,54.57,0,0,1,12.21-12.2,55.18,55.18,0,0,1,15.44-7.82,55.73,55.73,0,0,1,17.39-2.74,49.07,49.07,0,0,1,8.37.69A29,29,0,0,1,402,89.35a23.47,23.47,0,0,1,6.28,4.44,24.08,24.08,0,0,1,4.83,7.07,20,20,0,0,1,1.19,10.86,27.81,27.81,0,0,1-2.29,8.47,63.16,63.16,0,0,1-4.08,7.67,45.44,45.44,0,0,1-7.47,9.52,116.2,116.2,0,0,1-9.17,7.92c-1.73,1.26-3.49,2.51-5.28,3.73s-3.59,2.48-5.38,3.74a1.74,1.74,0,0,1-.4.3,1.74,1.74,0,0,0-.4.3A1.38,1.38,0,0,0,380.65,153.87Zm-16.14,50.31a1.25,1.25,0,0,1-1.1.6c-.33.07-.63.11-.89.15a7.31,7.31,0,0,1-.8,0,5.72,5.72,0,0,1-2.79-.7,3.85,3.85,0,0,1-1.94-1.39,5.13,5.13,0,0,1-.95-2.39,18.16,18.16,0,0,1-.6-4.79v-3.19h-.2c.2-2.25.37-4.55.5-6.87s.33-4.65.6-7q.8-6.37,1.84-12.46t2.14-12.35q.9-4.78,2.1-9.57c.79-3.19,1.59-6.37,2.39-9.56.66-2.33,1.24-4.6,1.74-6.83s1-4.43,1.45-6.62c.19-1.53.39-3.07.59-4.64a36.34,36.34,0,0,0,.3-4.63c-.13-.86,0-1.44.35-1.74a2.75,2.75,0,0,1,1.74-.45h1.25a6.45,6.45,0,0,1,1.54.2,2.88,2.88,0,0,1,1.05.6,7.22,7.22,0,0,1,.85.89c.33.73.61,1.41.84,2a11.27,11.27,0,0,1,.55,2,19.05,19.05,0,0,1,.25,4.58c-.1,1.53-.25,3-.45,4.48a118.88,118.88,0,0,1-2.44,12.81q-1.55,6.22-3.24,12.6-1.69,6-3.08,11.91c-.94,3.95-1.83,8-2.7,12.2q-.69,4.19-1.34,8.12t-1.35,8a33.86,33.86,0,0,0-.34,4c0,1.36-.12,2.7-.25,4a4.19,4.19,0,0,0,.1.95,5.35,5.35,0,0,1,.1,1.05,10.42,10.42,0,0,0,.44,1.39,1.58,1.58,0,0,0,1.25.8.44.44,0,0,1,.5.5.57.57,0,0,1,0,1.09Z"/><path class="cls-5" d="M451.39,147.19a20.06,20.06,0,0,1-.7,5.58H413.93v-4.19h23.71c4.78,0,5.88-2.29,5.88-5.08a11.06,11.06,0,0,0-11.06-10.86c-6.38,0-13.75,5.38-13.75,19.63,0,12.66,6.38,19.43,16.34,19.43,6.38,0,10.36-2.89,13.95-7.07l2.29,1.79c-3.59,7.07-10,11.56-19,11.56-13.35,0-22-9.27-22-24.41S420.6,128.16,433,128.16C443.22,128.16,451.39,135.13,451.39,147.19Z"/><path class="cls-5" d="M468.92,152.27c0,12.56,6.68,19.43,16,19.43a16.08,16.08,0,0,0,14-7.77l2.4,1.19c-2.7,8.27-9.07,12.86-18.44,12.86-13.65,0-22.22-9.57-22.22-24.81,0-15.65,11-25,22.82-25,8.87,0,16.24,5.48,17.54,12.85a4.13,4.13,0,0,1-4.49,3.69c-3.28,0-4.58-2-5.28-4.49l-2.49-8.76,4.58,3.68a20.72,20.72,0,0,0-9.56-2.49C475.1,132.64,468.92,139.52,468.92,152.27Z"/><path class="cls-5" d="M515.85,176.68c.2-4.48.3-14.74.3-20.92v-4.68c0-5.48-.1-8.57-.3-12.56l-8.17-.9v-3.48l15-6,1.5,1-.3,13.46v13.15c0,6.18.1,16.44.3,20.92Zm15.34-3.48v3.48H508.28V173.2l11-2h2Zm-17.83-62.58c0-3.78,2.89-6.28,6.57-6.28s6.58,2.5,6.58,6.28a6.58,6.58,0,0,1-13.15,0Z"/><path class="cls-5" d="M538.36,148.48h22.92v6.38H538.36Z"/><path class="cls-5" d="M560.78,109a14.9,14.9,0,0,0,4.54,4,27.54,27.54,0,0,0,5.62,2.39,16.28,16.28,0,0,0,1.95.5,16.64,16.64,0,0,1,1.94.49.78.78,0,0,1,.3,0,.35.35,0,0,0,.2,0c.4,0,.73-.29,1-.89.54-1.06,1.08-2.14,1.65-3.24s1.11-2.14,1.64-3.14,1.1-1.74,1.7-2.64,1.19-1.74,1.79-2.54a59.55,59.55,0,0,1,4.13-5.38,62.61,62.61,0,0,1,5.58-5.73,45.32,45.32,0,0,1,6.33-4.78,17.41,17.41,0,0,1,6.38-2.54,6.6,6.6,0,0,1,1.79-.35A8.93,8.93,0,0,0,609,85a5.94,5.94,0,0,1,1-.1h1.05a11.67,11.67,0,0,1,2.14.2,6.43,6.43,0,0,1,1.94.7q3.89,2.39,3.49,6.17a9.38,9.38,0,0,1-1.79,5.78,35.52,35.52,0,0,1-6,7.28,51.38,51.38,0,0,1-8,6.07,52.4,52.4,0,0,1-9.07,4.49,46.8,46.8,0,0,1-9.22,2.49,6.52,6.52,0,0,0-1,.4,1.68,1.68,0,0,0-.7.79,28.76,28.76,0,0,1-1.15,3.24,30.86,30.86,0,0,0-1.14,3.24q-.9,2.3-1.65,4.63c-.49,1.56-1,3.11-1.44,4.64q-.6,2.58-1.15,5.18c-.36,1.73-.71,3.45-1,5.18-.27,1.53-.48,3-.65,4.53a40.19,40.19,0,0,0-.25,4.53,59.84,59.84,0,0,0,0,8.47,76.61,76.61,0,0,0,1.4,9.77,47,47,0,0,0,3.33,10.36,26,26,0,0,0,5.83,8.22,12.29,12.29,0,0,0,8.67,3.34h.7a13.64,13.64,0,0,0,5.58-3,32.52,32.52,0,0,0,5.08-5.58,64.55,64.55,0,0,0,4.53-7.27q2.15-4,4-8.07c1.26-2.73,2.45-5.35,3.58-7.88s2.16-4.78,3.09-6.77c.4-.93.77-1.88,1.1-2.84s.7-1.91,1.09-2.84.6-1.59.8-2a1.31,1.31,0,0,1,1.3-.6,1.06,1.06,0,0,1,.5-.1c.33,0,.49.27.49.8-.33,1.53-.68,3-1,4.53a41.39,41.39,0,0,1-1.45,4.63q-3.39,9.07-6.72,16.49A105.62,105.62,0,0,1,609.6,187a42.75,42.75,0,0,1-6.77,8.51A12.88,12.88,0,0,1,596,199.1c-.8.13-1.56.25-2.29.35a16.12,16.12,0,0,1-2.19.15,18,18,0,0,1-8.72-2.14,24.16,24.16,0,0,1-6.87-5.58,33.79,33.79,0,0,1-4.94-7.72,39.14,39.14,0,0,1-2.88-8.57,59.92,59.92,0,0,1-2.3-20.23,81.92,81.92,0,0,1,1-9.71,88.93,88.93,0,0,1,1.94-9q1.2-4.38,2.74-8.77t3.24-9c.13-.34.15-.52,0-.55a2.83,2.83,0,0,1-.45-.25,12.75,12.75,0,0,1-3.24-.5,34,34,0,0,1-3.73-1.25,28.86,28.86,0,0,1-3.59-1.69,20.44,20.44,0,0,1-2.69-1.74,13.63,13.63,0,0,1-1.44-1.7,8.2,8.2,0,0,1-1-2c-.13-.53.1-.9.7-1.09A2.18,2.18,0,0,1,560.78,109Zm24.41,7.18c1.33-.34,2.66-.7,4-1.1a36.51,36.51,0,0,0,3.88-1.4,38.36,38.36,0,0,0,6.78-3.18,41.88,41.88,0,0,0,6.67-4.84,29.5,29.5,0,0,0,5.28-6.12,16.06,16.06,0,0,0,2.59-7.08,5.29,5.29,0,0,0-1.29-3.38,2.82,2.82,0,0,0-2.49-1.4,5.15,5.15,0,0,0-1.84.4,15.38,15.38,0,0,0-2.1,1c-.69.39-1.38.79-2,1.19A12.86,12.86,0,0,0,603,91.4q-2.29,1.89-4.34,3.93A37.33,37.33,0,0,0,595,99.67a51.53,51.53,0,0,0-4.34,5.83c-1.29,2-2.54,4.1-3.73,6.22a18.43,18.43,0,0,0-1.15,2c-.3.64-.62,1.32-1,2-.13.26-.13.4,0,.4Z"/><path class="cls-5" d="M625.54,153.27c0-16.54,11.26-25.11,22.72-25.11,11.26,0,22.72,8.57,22.72,25.11S659.52,178,648.26,178C636.8,178,625.54,169.81,625.54,153.27Zm36.47,0c0-13.35-5.08-20.63-13.75-20.63-8.87,0-13.75,7.28-13.75,20.63s4.88,20.22,13.75,20.22C656.93,173.49,662,166.62,662,153.27Z"/><path class="cls-5" d="M680.14,153.27c0-16.54,11.26-25.11,22.72-25.11,11.26,0,22.72,8.57,22.72,25.11S714.12,178,702.86,178C691.4,178,680.14,169.81,680.14,153.27Zm36.47,0c0-13.35-5.08-20.63-13.75-20.63-8.87,0-13.75,7.28-13.75,20.63s4.88,20.22,13.75,20.22C711.53,173.49,716.61,166.62,716.61,153.27Z"/><path class="cls-5" d="M758.15,197.11v3.49h-25.5v-3.49l11.26-2h2Zm-17.13-46c0-5.48-.1-8.57-.3-12.56l-8-.9v-3.48l13.55-6,1.49,1,.8,8.47.4.2v31.09l-.3.6v10c0,7,.1,14.15.3,21.13h-8.27q.3-10.47.3-20.93Zm20.32-17.44c-3.68,0-8.67,1.79-15.94,8.87l-.9-1.8c5.78-8.77,12.26-12.55,19-12.55,10.56,0,18.93,9.36,18.93,24.71S773.7,178,762,178c-6.08,0-12.26-2.79-17.54-13.15l.9-1.6c5.18,6.58,10,9.27,14.85,9.27,7.57,0,13.75-5.88,13.75-18.73S768.72,133.64,761.34,133.64Z"/></g></g></svg>